<?xml version="1.0" encoding="utf-8"?>
<!-- Generator: Adobe Illustrator 22.1.0, SVG Export Plug-In . SVG Version: 6.00 Build 0)  -->
<svg version="1.1" id="Layer_1" xmlns="http://www.w3.org/2000/svg" xmlns:xlink="http://www.w3.org/1999/xlink" x="0px" y="0px"
	 viewBox="0 0 248.7 105.8" enable-background="new 0 0 248.7 105.8" xml:space="preserve">
<g>
	<g>
		<path fill="#FFFFFF" d="M9.2,71.9c0.9-0.8,1.7-0.3,2.6,0.5c0,0,30,34.6,89.7-11.1c2.7-2,14.8,7,17.6,10.6c0.5,0.6,1.1,1.5,0.3,2.8
			c-1.1,1.7-3.9,4-3.9,4S48.3,136,9.4,74.2C9.3,74.2,8.2,72.6,9.2,71.9z"/>
		<path fill="#FFFFFF" d="M96.4,17.2c-8.6-16.2-35-19-58.9-6.3C13.5,23.6,1,47,9.5,63.2c2.7,5.2,7.3,9,13,11.3
			c-0.8-0.9-2.7-3.5-3-4.1c-0.9-1.2-1.4-2.6-1.8-4.4c-3.8-18.1,15.6-32.8,28.1-39.4s25.8-5.9,29.8,1.6c2.1,4,0.1,7.7-4.1,11.7
			C58.9,51.6,30.6,60,30.6,60c-4.9,2.6,8.2,15.1,10.2,16.6c3.7,2.8,19.5-2.8,27.7-7.2C92.5,56.8,105,33.3,96.4,17.2z"/>
	</g>
	<path fill="#FFFFFF" d="M152.2,48h-26.9c0.5,5.2,5,7.1,9.3,7.1c3.3,0,6-1,7.7-2.6l8.4,5.9c-3.6,3.9-10.1,6-16.2,6
		c-12.9,0-21.2-7.7-21.2-19.6c0-11.5,8.7-19.7,20.1-19.7c12,0,19,8.9,19,19.7C152.4,46.3,152.3,47.2,152.2,48z M132.8,33.8
		c-4.3,0-7,2.9-7.4,6.7H141C140.6,37.1,138.1,33.8,132.8,33.8z"/>
	<path fill="#FFFFFF" d="M172.4,64.4c-7.1,0-14.1-1.7-18.9-4.3l4-7.6c4.8,2.3,9.8,3.4,15.6,3.4c4.6,0,6-0.9,6-2.8
		c0-1.7-1.6-2.6-6.6-3.8c-10.9-2.7-17.8-4.9-17.8-12.9c0-7.8,7.5-11.2,18.1-11.2c5.7,0,11.8,1.4,16.6,3.7l-3.8,7.8
		c-4.4-2-9.4-3-13.1-3c-4.8,0-6.1,0.8-6.1,2.5c0,1.6,1.4,2.3,9.4,4.3c8,2.3,15,4.6,15,12.2C190.8,61.3,182.5,64.4,172.4,64.4z"/>
	<path fill="#FFFFFF" d="M215.2,64.4c-4,0-7.4-1.3-9.5-2.9v11.1l-11.8,4.9V25.9h11.8v2.4c2.3-1.6,5.2-3.1,9.5-3.1
		c9.6,0,17.5,6,17.5,20C232.8,56.5,226.5,64.4,215.2,64.4z M213.1,34.4c-3.7,0-5.6,1.3-7.3,3.1v14.2c1.8,2.1,4.5,3.2,7.9,3.2
		c4.5,0,7.1-3.3,7.1-9.6C220.8,37.7,217.7,34.4,213.1,34.4z"/>
	<g enable-background="new    ">
		<path fill="#FFFFFF" d="M240.9,30.8c0,2.1-1.7,3.8-3.8,3.8c-2.1,0-3.9-1.7-3.9-3.8c0-2.1,1.7-3.7,3.9-3.7
			C239.2,27,240.9,28.7,240.9,30.8z M234.2,30.8c0,1.7,1.2,3,2.9,3c1.6,0,2.9-1.3,2.9-3c0-1.7-1.2-3-2.9-3
			C235.4,27.8,234.2,29.1,234.2,30.8z M236.5,32.7h-0.9V29c0.3-0.1,0.8-0.1,1.4-0.1c0.7,0,1,0.1,1.3,0.3c0.2,0.2,0.4,0.5,0.4,0.8
			c0,0.4-0.3,0.7-0.8,0.9v0c0.4,0.1,0.6,0.4,0.7,0.9c0.1,0.6,0.2,0.8,0.3,0.9H238c-0.1-0.1-0.2-0.5-0.3-0.9
			c-0.1-0.4-0.3-0.6-0.8-0.6h-0.4V32.7z M236.5,30.6h0.4c0.5,0,0.9-0.2,0.9-0.5c0-0.3-0.3-0.6-0.8-0.6c-0.2,0-0.4,0-0.5,0V30.6z"/>
	</g>
</g>
</svg>
