<?xml version="1.0" encoding="utf-8"?>
<!-- Generator: Adobe Illustrator 22.1.0, SVG Export Plug-In . SVG Version: 6.00 Build 0)  -->
<svg version="1.1" id="Layer_1" xmlns="http://www.w3.org/2000/svg" xmlns:xlink="http://www.w3.org/1999/xlink" x="0px" y="0px"
	 viewBox="0 0 248.7 105.8" enable-background="new 0 0 248.7 105.8" xml:space="preserve">
<g>
	<g>
		<path fill="#FFFFFF" d="M9.2,71.9c0.9-0.8,1.7-0.3,2.6,0.5c0,0,30,34.6,89.7-11.1c2.7-2,14.8,7,17.6,10.6c0.5,0.6,1.1,1.5,0.3,2.8
			c-1.1,1.7-3.9,4-3.9,4S48.3,136,9.4,74.2C9.3,74.2,8.2,72.6,9.2,71.9z"/>
		<path fill="#FFFFFF" d="M96.4,17.2c-8.6-16.2-35-19-58.9-6.3C13.5,23.6,1,47,9.5,63.2c2.7,5.2,7.3,9,13,11.3
			c-0.8-0.9-2.7-3.5-3-4.1c-0.9-1.2-1.4-2.6-1.8-4.4c-3.8-18.1,15.6-32.8,28.1-39.4s25.8-5.9,29.8,1.6c2.1,4,0.1,7.7-4.1,11.7
			C58.9,51.6,30.6,60,30.6,60c-4.9,2.6,8.2,15.1,10.2,16.6c3.7,2.8,19.5-2.8,27.7-7.2C92.5,56.8,105,33.3,96.4,17.2z"/>
	</g>
</g>
</svg>
